<svg id="Layer_1" data-name="Layer 1" xmlns="http://www.w3.org/2000/svg" width="32" height="32" viewBox="0 0 32 32"><path d="M31.87,15.82a16.7,16.7,0,0,1-.76,4.72.41.41,0,0,0,0,.29A3.45,3.45,0,0,1,28.75,26a2.07,2.07,0,0,1-.41.07c-.18,0-.26.1-.35.21a15.45,15.45,0,0,1-8,5.18,14.39,14.39,0,0,1-3.91.52,15.38,15.38,0,0,1-8.5-2.54,15.52,15.52,0,0,1-3.64-3.27c-.09-.1-.3-.11-.45-.12a3.5,3.5,0,0,1-3.08-3,3.31,3.31,0,0,1,.43-2.17.46.46,0,0,0,0-.38,15.6,15.6,0,0,1,.64-11,15.68,15.68,0,0,1,10.83-9A15.44,15.44,0,0,1,16.81.08a15.94,15.94,0,0,1,8.56,3,15.51,15.51,0,0,1,5.49,7.24,14.48,14.48,0,0,1,.83,3.42C31.77,14.44,31.81,15.13,31.87,15.82ZM2,19.25a21.64,21.64,0,0,1,4.17-3.33.54.54,0,0,1,0-.75,4.19,4.19,0,0,1,1.18-1.3A4.88,4.88,0,0,1,10.73,13a4.13,4.13,0,0,1,2.35,1,2.72,2.72,0,0,1,.9,1.26.56.56,0,0,1-.66.77,1.52,1.52,0,0,1-.49-.25,5.1,5.1,0,0,0-3.92-.68c-.25.05-.49.12-.71.18v2.29a.18.18,0,0,0,.14.2l.72.24a24.63,24.63,0,0,0,6.27.87c1.26,0,2.53-.06,3.79-.16a19,19,0,0,0,2.38-.36c.72-.16,1.42-.39,2.13-.58a.19.19,0,0,0,.15-.22c0-.71,0-1.43,0-2.15a.19.19,0,0,0-.11-.16A9.39,9.39,0,0,0,22.21,15a5,5,0,0,0-2.86.68l-.57.32a.55.55,0,0,1-.65-.08.58.58,0,0,1-.15-.66,2.89,2.89,0,0,1,1.23-1.48A5,5,0,0,1,25.89,15,.69.69,0,0,1,26,16c.69.5,1.39,1,2.06,1.51s1.32,1.1,2,1.65A14.14,14.14,0,0,0,24.84,4.43a14.55,14.55,0,0,0-17-.52A14.21,14.21,0,0,0,2,19.25ZM24.4,22.94A9.58,9.58,0,0,1,16,27.63a9.57,9.57,0,0,1-8.41-4.71,4.39,4.39,0,0,1-2.11,2.77,13.93,13.93,0,0,0,21.05,0A4.29,4.29,0,0,1,24.4,22.94ZM8.14,19.22c0,.17,0,.38,0,.6s0,.42,0,.64a.37.37,0,0,0,.24.41c.38.19.76.39,1.15.54a17.36,17.36,0,0,0,5.61,1c1,0,2.08,0,3.11-.07a15.15,15.15,0,0,0,2.92-.44A9.25,9.25,0,0,0,23.53,21c.17-.1.39-.27.4-.41a9.83,9.83,0,0,0-.07-1.35A29.44,29.44,0,0,1,8.14,19.22ZM7.06,16.78a1.05,1.05,0,0,0-.13.08c-1,.76-2.08,1.51-3.09,2.31A7.07,7.07,0,0,0,2.18,21a2.65,2.65,0,0,0-.41,2.08,2.22,2.22,0,0,0,2.87,1.53,2.39,2.39,0,0,0,1.57-1.69,15.93,15.93,0,0,0,.56-3c.09-.81.16-1.62.24-2.43C7,17.27,7,17,7.06,16.78Zm17.84,0c0,.12,0,.2,0,.29.06.61.1,1.23.17,1.85s.13,1.31.24,2a15.79,15.79,0,0,0,.41,2.07,2.28,2.28,0,0,0,2.79,1.73,2.21,2.21,0,0,0,1.73-2.18A2.87,2.87,0,0,0,29.75,21a10.2,10.2,0,0,0-1.55-1.67A26.74,26.74,0,0,0,24.9,16.77Z"/><path d="M16,11.5A6.27,6.27,0,0,1,12,10.06,10.29,10.29,0,0,1,10,7.8a.59.59,0,0,1,0-.75,8.94,8.94,0,0,1,3.61-3.18,5.76,5.76,0,0,1,3.12-.49,6.57,6.57,0,0,1,3.06,1.3A9.87,9.87,0,0,1,22,7.06a.56.56,0,0,1,0,.71A10.83,10.83,0,0,1,20.5,9.56a7,7,0,0,1-2.9,1.7c-.52.14-1.08.2-1.62.3ZM11.12,7.4A8.09,8.09,0,0,0,12.9,9.28a5,5,0,0,0,5.6.37,8.09,8.09,0,0,0,2.34-2.21,7.5,7.5,0,0,0-2-2,4.74,4.74,0,0,0-4.51-.65A7,7,0,0,0,11.12,7.4Z"/><path d="M27.48,13.83a.53.53,0,0,1-.4.51.58.58,0,0,1-.7-.37,6.78,6.78,0,0,0-1.53-2.18,5.26,5.26,0,0,0-2.35-1.36.68.68,0,0,1-.53-1,.73.73,0,0,1,.85-.3,5.85,5.85,0,0,1,2.35,1.17,7,7,0,0,1,2,2.41A2.47,2.47,0,0,1,27.48,13.83Z"/><path d="M9.4,9a.7.7,0,0,1,.7.54.66.66,0,0,1-.43.77c-.32.13-.66.21-1,.35a6.3,6.3,0,0,0-3.13,3.22.57.57,0,0,1-.87.29.63.63,0,0,1-.2-.69,4.9,4.9,0,0,1,.9-1.83A6.84,6.84,0,0,1,8.73,9.19C9,9.11,9.18,9.07,9.4,9Z"/><path d="M13.75,7.38a2.24,2.24,0,0,1,2.41-2.24A2.26,2.26,0,0,1,16,9.66,2.22,2.22,0,0,1,13.75,7.38Zm2.25-1a1,1,0,0,0-1,1,1,1,0,0,0,2,0A1,1,0,0,0,16,6.38Z"/></svg>